<mxfile host="65bd71144e" pages="2">
    <diagram name="macro" id="9zHcCeUQqaZ8692WswbY">
        <mxGraphModel dx="788" dy="601" grid="1" gridSize="10" guides="1" tooltips="1" connect="1" arrows="1" fold="1" page="1" pageScale="1" pageWidth="827" pageHeight="1169" math="0" shadow="0">
            <root>
                <mxCell id="0"/>
                <mxCell id="1" parent="0"/>
                <mxCell id="3" value="dARK Metdatata Layer" style="whiteSpace=wrap;strokeWidth=2;verticalAlign=bottom;fontSize=16;fontStyle=1;rounded=1;container=0;" parent="1" vertex="1">
                    <mxGeometry x="68.5" y="750" width="548.86" height="120" as="geometry"/>
                </mxCell>
                <mxCell id="RpSKrlZ48StNRSg9d6U9-43" value="&lt;h1&gt;dARK Overview&lt;/h1&gt;" style="text;html=1;strokeColor=none;fillColor=none;spacing=5;spacingTop=-20;whiteSpace=wrap;overflow=hidden;rounded=0;" parent="1" vertex="1">
                    <mxGeometry x="217.07" y="50" width="225" height="50" as="geometry"/>
                </mxCell>
                <mxCell id="11" value="" style="group" parent="1" vertex="1" connectable="0">
                    <mxGeometry x="96.16999999999999" y="510" width="151.14" height="320" as="geometry"/>
                </mxCell>
                <mxCell id="A0lSjFTI5e9bqqVm3xAy-101" value="" style="whiteSpace=wrap;strokeWidth=2;verticalAlign=top;fontStyle=0;fontSize=14;fillColor=#d5e8d4;strokeColor=none;rounded=1;opacity=50;container=0;" parent="11" vertex="1">
                    <mxGeometry width="151.14" height="320" as="geometry"/>
                </mxCell>
                <mxCell id="A0lSjFTI5e9bqqVm3xAy-103" value="Blockchain" style="editableCssRules=path;shape=image;aspect=fixed;image=data:image/svg+xml,PHN2ZyB4bWxucz0iaHR0cDovL3d3dy53My5vcmcvMjAwMC9zdmciIHZpZXdCb3g9IjAgMCA0NDggNTEyIj48IS0tISBGb250IEF3ZXNvbWUgRnJlZSA2LjQuMCBieSBAZm9udGF3ZXNvbWUgLSBodHRwczovL2ZvbnRhd2Vzb21lLmNvbSBMaWNlbnNlIC0gaHR0cHM6Ly9mb250YXdlc29tZS5jb20vbGljZW5zZS9mcmVlIChJY29uczogQ0MgQlkgNC4wLCBGb250czogU0lMIE9GTCAxLjEsIENvZGU6IE1JVCBMaWNlbnNlKSBDb3B5cmlnaHQgMjAyMyBGb250aWNvbnMsIEluYy4gLS0+PHN0eWxlIHR5cGU9InRleHQvY3NzIj5wYXRoIHtmaWxsOiMwMDAwMDA7fTwvc3R5bGU+PHBhdGggZD0iTTM2OCA4MGgzMnYzMkgzNjhWODB6TTM1MiAzMmMtMTcuNyAwLTMyIDE0LjMtMzIgMzJIMTI4YzAtMTcuNy0xNC4zLTMyLTMyLTMySDMyQzE0LjMgMzIgMCA0Ni4zIDAgNjR2NjRjMCAxNy43IDE0LjMgMzIgMzIgMzJWMzUyYy0xNy43IDAtMzIgMTQuMy0zMiAzMnY2NGMwIDE3LjcgMTQuMyAzMiAzMiAzMkg5NmMxNy43IDAgMzItMTQuMyAzMi0zMkgzMjBjMCAxNy43IDE0LjMgMzIgMzIgMzJoNjRjMTcuNyAwIDMyLTE0LjMgMzItMzJWMzg0YzAtMTcuNy0xNC4zLTMyLTMyLTMyVjE2MGMxNy43IDAgMzItMTQuMyAzMi0zMlY2NGMwLTE3LjctMTQuMy0zMi0zMi0zMkgzNTJ6TTk2IDE2MGMxNy43IDAgMzItMTQuMyAzMi0zMkgzMjBjMCAxNy43IDE0LjMgMzIgMzIgMzJWMzUyYy0xNy43IDAtMzIgMTQuMy0zMiAzMkgxMjhjMC0xNy43LTE0LjMtMzItMzItMzJWMTYwek00OCA0MDBIODB2MzJINDhWNDAwem0zMjAgMzJWNDAwaDMydjMySDM2OHpNNDggMTEyVjgwSDgwdjMySDQ4eiIvPjwvc3ZnPg==;connectable=0;movable=1;verticalLabelPosition=bottom;resizable=1;rotatable=0;cloneable=0;deletable=1;recursiveResize=0;imageBackground=none;verticalAlign=top;rounded=1;" parent="11" vertex="1">
                    <mxGeometry x="17.659999999999997" y="122.25999999999999" width="40" height="40" as="geometry"/>
                </mxCell>
                <mxCell id="4" value="ARK &lt;br&gt;Resolver" style="html=1;verticalLabelPosition=bottom;align=center;labelBackgroundColor=none;verticalAlign=top;strokeWidth=2;strokeColor=#000000;shadow=0;dashed=0;shape=mxgraph.ios7.icons.share;fillColor=none;" parent="11" vertex="1">
                    <mxGeometry x="31.39999999999999" y="46" width="21" height="28.5" as="geometry"/>
                </mxCell>
                <mxCell id="6" value="ARK&lt;br&gt;Factory" style="html=1;verticalLabelPosition=bottom;align=center;labelBackgroundColor=none;verticalAlign=top;strokeWidth=2;strokeColor=#000000;shadow=0;dashed=0;shape=mxgraph.ios7.icons.down;fillColor=none;" parent="11" vertex="1">
                    <mxGeometry x="84.65999999999998" y="49" width="21" height="25.5" as="geometry"/>
                </mxCell>
                <mxCell id="9" value="Services" style="html=1;verticalLabelPosition=bottom;align=center;labelBackgroundColor=none;verticalAlign=top;strokeWidth=3;strokeColor=#000000;shadow=0;dashed=0;shape=mxgraph.ios7.icons.settings;fillColor=none;" parent="11" vertex="1">
                    <mxGeometry x="80.15999999999998" y="132.26" width="30" height="30" as="geometry"/>
                </mxCell>
                <mxCell id="A0lSjFTI5e9bqqVm3xAy-105" value="dARK Net 01" style="text;html=1;strokeColor=none;fillColor=none;align=center;verticalAlign=middle;whiteSpace=wrap;rounded=1;fontSize=14;arcSize=50;" parent="1" vertex="1">
                    <mxGeometry x="100" y="520" width="143.48" height="16" as="geometry"/>
                </mxCell>
                <mxCell id="14" value="" style="whiteSpace=wrap;strokeWidth=2;verticalAlign=top;fontStyle=0;fontSize=14;fillColor=#fff2cc;strokeColor=#d6b656;rounded=1;opacity=50;container=0;" parent="1" vertex="1">
                    <mxGeometry x="262" y="510" width="151.14" height="320" as="geometry"/>
                </mxCell>
                <mxCell id="16" value="Blockchain" style="editableCssRules=path;shape=image;aspect=fixed;image=data:image/svg+xml,PHN2ZyB4bWxucz0iaHR0cDovL3d3dy53My5vcmcvMjAwMC9zdmciIHZpZXdCb3g9IjAgMCA0NDggNTEyIj48IS0tISBGb250IEF3ZXNvbWUgRnJlZSA2LjQuMCBieSBAZm9udGF3ZXNvbWUgLSBodHRwczovL2ZvbnRhd2Vzb21lLmNvbSBMaWNlbnNlIC0gaHR0cHM6Ly9mb250YXdlc29tZS5jb20vbGljZW5zZS9mcmVlIChJY29uczogQ0MgQlkgNC4wLCBGb250czogU0lMIE9GTCAxLjEsIENvZGU6IE1JVCBMaWNlbnNlKSBDb3B5cmlnaHQgMjAyMyBGb250aWNvbnMsIEluYy4gLS0+PHN0eWxlIHR5cGU9InRleHQvY3NzIj5wYXRoIHtmaWxsOiMwMDAwMDA7fTwvc3R5bGU+PHBhdGggZD0iTTM2OCA4MGgzMnYzMkgzNjhWODB6TTM1MiAzMmMtMTcuNyAwLTMyIDE0LjMtMzIgMzJIMTI4YzAtMTcuNy0xNC4zLTMyLTMyLTMySDMyQzE0LjMgMzIgMCA0Ni4zIDAgNjR2NjRjMCAxNy43IDE0LjMgMzIgMzIgMzJWMzUyYy0xNy43IDAtMzIgMTQuMy0zMiAzMnY2NGMwIDE3LjcgMTQuMyAzMiAzMiAzMkg5NmMxNy43IDAgMzItMTQuMyAzMi0zMkgzMjBjMCAxNy43IDE0LjMgMzIgMzIgMzJoNjRjMTcuNyAwIDMyLTE0LjMgMzItMzJWMzg0YzAtMTcuNy0xNC4zLTMyLTMyLTMyVjE2MGMxNy43IDAgMzItMTQuMyAzMi0zMlY2NGMwLTE3LjctMTQuMy0zMi0zMi0zMkgzNTJ6TTk2IDE2MGMxNy43IDAgMzItMTQuMyAzMi0zMkgzMjBjMCAxNy43IDE0LjMgMzIgMzIgMzJWMzUyYy0xNy43IDAtMzIgMTQuMy0zMiAzMkgxMjhjMC0xNy43LTE0LjMtMzItMzItMzJWMTYwek00OCA0MDBIODB2MzJINDhWNDAwem0zMjAgMzJWNDAwaDMydjMySDM2OHpNNDggMTEyVjgwSDgwdjMySDQ4eiIvPjwvc3ZnPg==;connectable=0;movable=1;verticalLabelPosition=bottom;resizable=1;rotatable=0;cloneable=0;deletable=1;recursiveResize=0;imageBackground=none;verticalAlign=top;rounded=1;" parent="1" vertex="1">
                    <mxGeometry x="279.65999999999997" y="632.26" width="40" height="40" as="geometry"/>
                </mxCell>
                <mxCell id="17" value="ARK &lt;br&gt;Resolver" style="html=1;verticalLabelPosition=bottom;align=center;labelBackgroundColor=none;verticalAlign=top;strokeWidth=2;strokeColor=#000000;shadow=0;dashed=0;shape=mxgraph.ios7.icons.share;fillColor=none;" parent="1" vertex="1">
                    <mxGeometry x="293.4" y="556" width="21" height="28.5" as="geometry"/>
                </mxCell>
                <mxCell id="18" value="ARK&lt;br&gt;Factory" style="html=1;verticalLabelPosition=bottom;align=center;labelBackgroundColor=none;verticalAlign=top;strokeWidth=2;strokeColor=#000000;shadow=0;dashed=0;shape=mxgraph.ios7.icons.down;fillColor=none;" parent="1" vertex="1">
                    <mxGeometry x="346.65999999999997" y="559" width="21" height="25.5" as="geometry"/>
                </mxCell>
                <mxCell id="19" value="Services" style="html=1;verticalLabelPosition=bottom;align=center;labelBackgroundColor=none;verticalAlign=top;strokeWidth=3;strokeColor=#000000;shadow=0;dashed=0;shape=mxgraph.ios7.icons.settings;fillColor=none;" parent="1" vertex="1">
                    <mxGeometry x="342.15999999999997" y="642.26" width="30" height="30" as="geometry"/>
                </mxCell>
                <mxCell id="28" value="dARK Net 02" style="text;html=1;strokeColor=none;fillColor=none;align=center;verticalAlign=middle;whiteSpace=wrap;rounded=1;fontSize=14;arcSize=50;" parent="1" vertex="1">
                    <mxGeometry x="260.08000000000004" y="520" width="143.48" height="16" as="geometry"/>
                </mxCell>
                <mxCell id="29" style="edgeStyle=none;html=1;exitX=0.5;exitY=1;exitDx=0;exitDy=0;entryX=0.388;entryY=-0.017;entryDx=0;entryDy=0;entryPerimeter=0;startArrow=block;startFill=1;strokeWidth=4;" parent="1" source="A0lSjFTI5e9bqqVm3xAy-120" target="A0lSjFTI5e9bqqVm3xAy-101" edge="1">
                    <mxGeometry relative="1" as="geometry"/>
                </mxCell>
                <mxCell id="43" style="edgeStyle=none;html=1;exitX=0.5;exitY=1;exitDx=0;exitDy=0;entryX=0.483;entryY=0.159;entryDx=0;entryDy=0;entryPerimeter=0;startArrow=block;startFill=1;strokeWidth=4;" parent="1" source="36" target="A0lSjFTI5e9bqqVm3xAy-23" edge="1">
                    <mxGeometry relative="1" as="geometry">
                        <mxPoint x="167.56999999999994" y="397" as="sourcePoint"/>
                        <mxPoint x="166.77714000000014" y="517.1199999999999" as="targetPoint"/>
                    </mxGeometry>
                </mxCell>
                <mxCell id="45" style="edgeStyle=none;html=1;entryX=0.483;entryY=0.159;entryDx=0;entryDy=0;entryPerimeter=0;startArrow=block;startFill=1;strokeWidth=4;exitX=0.5;exitY=1;exitDx=0;exitDy=0;" parent="1" source="39" edge="1">
                    <mxGeometry relative="1" as="geometry">
                        <mxPoint x="505.07" y="387" as="sourcePoint"/>
                        <mxPoint x="505.1693800000001" y="510.068" as="targetPoint"/>
                    </mxGeometry>
                </mxCell>
                <mxCell id="21" value="" style="whiteSpace=wrap;strokeWidth=2;verticalAlign=top;fontStyle=0;fontSize=14;fillColor=#e1d5e7;strokeColor=#9673a6;rounded=1;opacity=50;container=0;" parent="1" vertex="1">
                    <mxGeometry x="430" y="510" width="151.14" height="320" as="geometry"/>
                </mxCell>
                <mxCell id="A0lSjFTI5e9bqqVm3xAy-23" value="dARK Persistent Identifier Layer" style="whiteSpace=wrap;strokeWidth=2;verticalAlign=bottom;fontSize=16;fontStyle=1;rounded=1;container=0;fillColor=none;" parent="1" vertex="1">
                    <mxGeometry x="68.5" y="470" width="548.86" height="260" as="geometry"/>
                </mxCell>
                <mxCell id="23" value="Blockchain" style="editableCssRules=path;shape=image;aspect=fixed;image=data:image/svg+xml,PHN2ZyB4bWxucz0iaHR0cDovL3d3dy53My5vcmcvMjAwMC9zdmciIHZpZXdCb3g9IjAgMCA0NDggNTEyIj48IS0tISBGb250IEF3ZXNvbWUgRnJlZSA2LjQuMCBieSBAZm9udGF3ZXNvbWUgLSBodHRwczovL2ZvbnRhd2Vzb21lLmNvbSBMaWNlbnNlIC0gaHR0cHM6Ly9mb250YXdlc29tZS5jb20vbGljZW5zZS9mcmVlIChJY29uczogQ0MgQlkgNC4wLCBGb250czogU0lMIE9GTCAxLjEsIENvZGU6IE1JVCBMaWNlbnNlKSBDb3B5cmlnaHQgMjAyMyBGb250aWNvbnMsIEluYy4gLS0+PHN0eWxlIHR5cGU9InRleHQvY3NzIj5wYXRoIHtmaWxsOiMwMDAwMDA7fTwvc3R5bGU+PHBhdGggZD0iTTM2OCA4MGgzMnYzMkgzNjhWODB6TTM1MiAzMmMtMTcuNyAwLTMyIDE0LjMtMzIgMzJIMTI4YzAtMTcuNy0xNC4zLTMyLTMyLTMySDMyQzE0LjMgMzIgMCA0Ni4zIDAgNjR2NjRjMCAxNy43IDE0LjMgMzIgMzIgMzJWMzUyYy0xNy43IDAtMzIgMTQuMy0zMiAzMnY2NGMwIDE3LjcgMTQuMyAzMiAzMiAzMkg5NmMxNy43IDAgMzItMTQuMyAzMi0zMkgzMjBjMCAxNy43IDE0LjMgMzIgMzIgMzJoNjRjMTcuNyAwIDMyLTE0LjMgMzItMzJWMzg0YzAtMTcuNy0xNC4zLTMyLTMyLTMyVjE2MGMxNy43IDAgMzItMTQuMyAzMi0zMlY2NGMwLTE3LjctMTQuMy0zMi0zMi0zMkgzNTJ6TTk2IDE2MGMxNy43IDAgMzItMTQuMyAzMi0zMkgzMjBjMCAxNy43IDE0LjMgMzIgMzIgMzJWMzUyYy0xNy43IDAtMzIgMTQuMy0zMiAzMkgxMjhjMC0xNy43LTE0LjMtMzItMzItMzJWMTYwek00OCA0MDBIODB2MzJINDhWNDAwem0zMjAgMzJWNDAwaDMydjMySDM2OHpNNDggMTEyVjgwSDgwdjMySDQ4eiIvPjwvc3ZnPg==;connectable=0;movable=1;verticalLabelPosition=bottom;resizable=1;rotatable=0;cloneable=0;deletable=1;recursiveResize=0;imageBackground=none;verticalAlign=top;rounded=1;" parent="1" vertex="1">
                    <mxGeometry x="447.65999999999997" y="632.26" width="40" height="40" as="geometry"/>
                </mxCell>
                <mxCell id="24" value="ARK &lt;br&gt;Resolver" style="html=1;verticalLabelPosition=bottom;align=center;labelBackgroundColor=none;verticalAlign=top;strokeWidth=2;strokeColor=#000000;shadow=0;dashed=0;shape=mxgraph.ios7.icons.share;fillColor=none;" parent="1" vertex="1">
                    <mxGeometry x="461.4" y="556" width="21" height="28.5" as="geometry"/>
                </mxCell>
                <mxCell id="25" value="ARK&lt;br&gt;Factory" style="html=1;verticalLabelPosition=bottom;align=center;labelBackgroundColor=none;verticalAlign=top;strokeWidth=2;strokeColor=#000000;shadow=0;dashed=0;shape=mxgraph.ios7.icons.down;fillColor=none;" parent="1" vertex="1">
                    <mxGeometry x="514.66" y="559" width="21" height="25.5" as="geometry"/>
                </mxCell>
                <mxCell id="26" value="Services" style="html=1;verticalLabelPosition=bottom;align=center;labelBackgroundColor=none;verticalAlign=top;strokeWidth=3;strokeColor=#000000;shadow=0;dashed=0;shape=mxgraph.ios7.icons.settings;fillColor=none;" parent="1" vertex="1">
                    <mxGeometry x="510.15999999999997" y="642.26" width="30" height="30" as="geometry"/>
                </mxCell>
                <mxCell id="27" value="dARK Net 03" style="text;html=1;strokeColor=none;fillColor=none;align=center;verticalAlign=middle;whiteSpace=wrap;rounded=1;fontSize=14;arcSize=50;" parent="1" vertex="1">
                    <mxGeometry x="437.66" y="520" width="143.48" height="16" as="geometry"/>
                </mxCell>
                <mxCell id="47" value="" style="group;opacity=90;" vertex="1" connectable="0" parent="1">
                    <mxGeometry x="72.57" y="130" width="530" height="312.5" as="geometry"/>
                </mxCell>
                <mxCell id="A0lSjFTI5e9bqqVm3xAy-11" value="dARK Deduplicated Identifier Layer (global)" style="whiteSpace=wrap;strokeWidth=2;verticalAlign=top;fontSize=16;fontStyle=1;rounded=1;container=0;" parent="47" vertex="1">
                    <mxGeometry width="530" height="312.5" as="geometry"/>
                </mxCell>
                <mxCell id="46" value="" style="group;opacity=50;" vertex="1" connectable="0" parent="47">
                    <mxGeometry x="17.5" y="40" width="478.99999999999994" height="247" as="geometry"/>
                </mxCell>
                <mxCell id="30" value="Deduplicated ARK Blockchain" style="editableCssRules=path;shape=image;aspect=fixed;image=data:image/svg+xml,PHN2ZyB4bWxucz0iaHR0cDovL3d3dy53My5vcmcvMjAwMC9zdmciIHZpZXdCb3g9IjAgMCA0NDggNTEyIj48IS0tISBGb250IEF3ZXNvbWUgRnJlZSA2LjQuMCBieSBAZm9udGF3ZXNvbWUgLSBodHRwczovL2ZvbnRhd2Vzb21lLmNvbSBMaWNlbnNlIC0gaHR0cHM6Ly9mb250YXdlc29tZS5jb20vbGljZW5zZS9mcmVlIChJY29uczogQ0MgQlkgNC4wLCBGb250czogU0lMIE9GTCAxLjEsIENvZGU6IE1JVCBMaWNlbnNlKSBDb3B5cmlnaHQgMjAyMyBGb250aWNvbnMsIEluYy4gLS0+PHN0eWxlIHR5cGU9InRleHQvY3NzIj5wYXRoIHtmaWxsOiMwMDAwMDA7fTwvc3R5bGU+PHBhdGggZD0iTTM2OCA4MGgzMnYzMkgzNjhWODB6TTM1MiAzMmMtMTcuNyAwLTMyIDE0LjMtMzIgMzJIMTI4YzAtMTcuNy0xNC4zLTMyLTMyLTMySDMyQzE0LjMgMzIgMCA0Ni4zIDAgNjR2NjRjMCAxNy43IDE0LjMgMzIgMzIgMzJWMzUyYy0xNy43IDAtMzIgMTQuMy0zMiAzMnY2NGMwIDE3LjcgMTQuMyAzMiAzMiAzMkg5NmMxNy43IDAgMzItMTQuMyAzMi0zMkgzMjBjMCAxNy43IDE0LjMgMzIgMzIgMzJoNjRjMTcuNyAwIDMyLTE0LjMgMzItMzJWMzg0YzAtMTcuNy0xNC4zLTMyLTMyLTMyVjE2MGMxNy43IDAgMzItMTQuMyAzMi0zMlY2NGMwLTE3LjctMTQuMy0zMi0zMi0zMkgzNTJ6TTk2IDE2MGMxNy43IDAgMzItMTQuMyAzMi0zMkgzMjBjMCAxNy43IDE0LjMgMzIgMzIgMzJWMzUyYy0xNy43IDAtMzIgMTQuMy0zMiAzMkgxMjhjMC0xNy43LTE0LjMtMzItMzItMzJWMTYwek00OCA0MDBIODB2MzJINDhWNDAwem0zMjAgMzJWNDAwaDMydjMySDM2OHpNNDggMTEyVjgwSDgwdjMySDQ4eiIvPjwvc3ZnPg==;connectable=0;movable=1;verticalLabelPosition=bottom;resizable=1;rotatable=0;cloneable=0;deletable=1;recursiveResize=0;imageBackground=none;verticalAlign=top;rounded=1;" parent="46" vertex="1">
                    <mxGeometry x="117.43000000000004" width="72.16" height="72.16" as="geometry"/>
                </mxCell>
                <mxCell id="33" value="" style="group" parent="46" vertex="1" connectable="0">
                    <mxGeometry y="120" width="127" height="127" as="geometry"/>
                </mxCell>
                <mxCell id="A0lSjFTI5e9bqqVm3xAy-120" value="" style="ellipse;whiteSpace=wrap;html=1;aspect=fixed;fillColor=#d5e8d4;strokeColor=#82b366;rounded=1;opacity=50;" parent="33" vertex="1">
                    <mxGeometry width="127" height="127" as="geometry"/>
                </mxCell>
                <mxCell id="A0lSjFTI5e9bqqVm3xAy-92" value="&#10;Authority 01" style="editableCssRules=path;shape=image;aspect=fixed;image=data:image/svg+xml,PHN2ZyB4bWxucz0iaHR0cDovL3d3dy53My5vcmcvMjAwMC9zdmciIHZpZXdCb3g9IjAgMCA2NDAgNTEyIj48IS0tISBGb250IEF3ZXNvbWUgRnJlZSA2LjQuMCBieSBAZm9udGF3ZXNvbWUgLSBodHRwczovL2ZvbnRhd2Vzb21lLmNvbSBMaWNlbnNlIC0gaHR0cHM6Ly9mb250YXdlc29tZS5jb20vbGljZW5zZS9mcmVlIChJY29uczogQ0MgQlkgNC4wLCBGb250czogU0lMIE9GTCAxLjEsIENvZGU6IE1JVCBMaWNlbnNlKSBDb3B5cmlnaHQgMjAyMyBGb250aWNvbnMsIEluYy4gLS0+PHN0eWxlIHR5cGU9InRleHQvY3NzIj5wYXRoIHtmaWxsOiMwMDAwMDA7fTwvc3R5bGU+PHBhdGggZD0iTTE0NCAwYTgwIDgwIDAgMSAxIDAgMTYwQTgwIDgwIDAgMSAxIDE0NCAwek01MTIgMGE4MCA4MCAwIDEgMSAwIDE2MEE4MCA4MCAwIDEgMSA1MTIgMHpNMCAyOTguN0MwIDIzOS44IDQ3LjggMTkyIDEwNi43IDE5Mmg0Mi43YzE1LjkgMCAzMSAzLjUgNDQuNiA5LjdjLTEuMyA3LjItMS45IDE0LjctMS45IDIyLjNjMCAzOC4yIDE2LjggNzIuNSA0My4zIDk2Yy0uMiAwLS40IDAtLjcgMEgyMS4zQzkuNiAzMjAgMCAzMTAuNCAwIDI5OC43ek00MDUuMyAzMjBjLS4yIDAtLjQgMC0uNyAwYzI2LjYtMjMuNSA0My4zLTU3LjggNDMuMy05NmMwLTcuNi0uNy0xNS0xLjktMjIuM2MxMy42LTYuMyAyOC43LTkuNyA0NC42LTkuN2g0Mi43QzU5Mi4yIDE5MiA2NDAgMjM5LjggNjQwIDI5OC43YzAgMTEuOC05LjYgMjEuMy0yMS4zIDIxLjNINDA1LjN6TTIyNCAyMjRhOTYgOTYgMCAxIDEgMTkyIDAgOTYgOTYgMCAxIDEgLTE5MiAwek0xMjggNDg1LjNDMTI4IDQxMS43IDE4Ny43IDM1MiAyNjEuMyAzNTJIMzc4LjdDNDUyLjMgMzUyIDUxMiA0MTEuNyA1MTIgNDg1LjNjMCAxNC43LTExLjkgMjYuNy0yNi43IDI2LjdIMTU0LjdjLTE0LjcgMC0yNi43LTExLjktMjYuNy0yNi43eiIvPjwvc3ZnPg==;connectable=0;movable=1;verticalLabelPosition=bottom;resizable=1;rotatable=0;cloneable=0;deletable=1;recursiveResize=0;imageBackground=none;verticalAlign=top;rounded=1;" parent="33" vertex="1">
                    <mxGeometry x="40.0253702951137" y="22.198290598290612" width="46.953247479285224" height="46.953247479285224" as="geometry"/>
                </mxCell>
                <mxCell id="41" value="Services" style="html=1;verticalLabelPosition=bottom;align=center;labelBackgroundColor=none;verticalAlign=top;strokeWidth=6;strokeColor=#000000;shadow=0;dashed=0;shape=mxgraph.ios7.icons.settings;fillColor=none;" parent="46" vertex="1">
                    <mxGeometry x="305.25" y="2.1599999999999966" width="70" height="70" as="geometry"/>
                </mxCell>
                <mxCell id="36" value="" style="ellipse;whiteSpace=wrap;html=1;aspect=fixed;fillColor=#fff2cc;strokeColor=#d6b656;rounded=1;opacity=50;" parent="46" vertex="1">
                    <mxGeometry x="179.93" y="120" width="127" height="127" as="geometry"/>
                </mxCell>
                <mxCell id="37" value="&#10;Authority 01" style="editableCssRules=path;shape=image;aspect=fixed;image=data:image/svg+xml,PHN2ZyB4bWxucz0iaHR0cDovL3d3dy53My5vcmcvMjAwMC9zdmciIHZpZXdCb3g9IjAgMCA2NDAgNTEyIj48IS0tISBGb250IEF3ZXNvbWUgRnJlZSA2LjQuMCBieSBAZm9udGF3ZXNvbWUgLSBodHRwczovL2ZvbnRhd2Vzb21lLmNvbSBMaWNlbnNlIC0gaHR0cHM6Ly9mb250YXdlc29tZS5jb20vbGljZW5zZS9mcmVlIChJY29uczogQ0MgQlkgNC4wLCBGb250czogU0lMIE9GTCAxLjEsIENvZGU6IE1JVCBMaWNlbnNlKSBDb3B5cmlnaHQgMjAyMyBGb250aWNvbnMsIEluYy4gLS0+PHN0eWxlIHR5cGU9InRleHQvY3NzIj5wYXRoIHtmaWxsOiMwMDAwMDA7fTwvc3R5bGU+PHBhdGggZD0iTTE0NCAwYTgwIDgwIDAgMSAxIDAgMTYwQTgwIDgwIDAgMSAxIDE0NCAwek01MTIgMGE4MCA4MCAwIDEgMSAwIDE2MEE4MCA4MCAwIDEgMSA1MTIgMHpNMCAyOTguN0MwIDIzOS44IDQ3LjggMTkyIDEwNi43IDE5Mmg0Mi43YzE1LjkgMCAzMSAzLjUgNDQuNiA5LjdjLTEuMyA3LjItMS45IDE0LjctMS45IDIyLjNjMCAzOC4yIDE2LjggNzIuNSA0My4zIDk2Yy0uMiAwLS40IDAtLjcgMEgyMS4zQzkuNiAzMjAgMCAzMTAuNCAwIDI5OC43ek00MDUuMyAzMjBjLS4yIDAtLjQgMC0uNyAwYzI2LjYtMjMuNSA0My4zLTU3LjggNDMuMy05NmMwLTcuNi0uNy0xNS0xLjktMjIuM2MxMy42LTYuMyAyOC43LTkuNyA0NC42LTkuN2g0Mi43QzU5Mi4yIDE5MiA2NDAgMjM5LjggNjQwIDI5OC43YzAgMTEuOC05LjYgMjEuMy0yMS4zIDIxLjNINDA1LjN6TTIyNCAyMjRhOTYgOTYgMCAxIDEgMTkyIDAgOTYgOTYgMCAxIDEgLTE5MiAwek0xMjggNDg1LjNDMTI4IDQxMS43IDE4Ny43IDM1MiAyNjEuMyAzNTJIMzc4LjdDNDUyLjMgMzUyIDUxMiA0MTEuNyA1MTIgNDg1LjNjMCAxNC43LTExLjkgMjYuNy0yNi43IDI2LjdIMTU0LjdjLTE0LjcgMC0yNi43LTExLjktMjYuNy0yNi43eiIvPjwvc3ZnPg==;connectable=0;movable=1;verticalLabelPosition=bottom;resizable=1;rotatable=0;cloneable=0;deletable=1;recursiveResize=0;imageBackground=none;verticalAlign=top;rounded=1;" parent="46" vertex="1">
                    <mxGeometry x="218.2653702951137" y="139.99829059829062" width="46.953247479285224" height="46.953247479285224" as="geometry"/>
                </mxCell>
                <mxCell id="39" value="" style="ellipse;whiteSpace=wrap;html=1;aspect=fixed;fillColor=#e1d5e7;strokeColor=#9673a6;rounded=1;opacity=50;" parent="46" vertex="1">
                    <mxGeometry x="352" y="120" width="127" height="127" as="geometry"/>
                </mxCell>
                <mxCell id="40" value="&#10;Authority 01" style="editableCssRules=path;shape=image;aspect=fixed;image=data:image/svg+xml,PHN2ZyB4bWxucz0iaHR0cDovL3d3dy53My5vcmcvMjAwMC9zdmciIHZpZXdCb3g9IjAgMCA2NDAgNTEyIj48IS0tISBGb250IEF3ZXNvbWUgRnJlZSA2LjQuMCBieSBAZm9udGF3ZXNvbWUgLSBodHRwczovL2ZvbnRhd2Vzb21lLmNvbSBMaWNlbnNlIC0gaHR0cHM6Ly9mb250YXdlc29tZS5jb20vbGljZW5zZS9mcmVlIChJY29uczogQ0MgQlkgNC4wLCBGb250czogU0lMIE9GTCAxLjEsIENvZGU6IE1JVCBMaWNlbnNlKSBDb3B5cmlnaHQgMjAyMyBGb250aWNvbnMsIEluYy4gLS0+PHN0eWxlIHR5cGU9InRleHQvY3NzIj5wYXRoIHtmaWxsOiMwMDAwMDA7fTwvc3R5bGU+PHBhdGggZD0iTTE0NCAwYTgwIDgwIDAgMSAxIDAgMTYwQTgwIDgwIDAgMSAxIDE0NCAwek01MTIgMGE4MCA4MCAwIDEgMSAwIDE2MEE4MCA4MCAwIDEgMSA1MTIgMHpNMCAyOTguN0MwIDIzOS44IDQ3LjggMTkyIDEwNi43IDE5Mmg0Mi43YzE1LjkgMCAzMSAzLjUgNDQuNiA5LjdjLTEuMyA3LjItMS45IDE0LjctMS45IDIyLjNjMCAzOC4yIDE2LjggNzIuNSA0My4zIDk2Yy0uMiAwLS40IDAtLjcgMEgyMS4zQzkuNiAzMjAgMCAzMTAuNCAwIDI5OC43ek00MDUuMyAzMjBjLS4yIDAtLjQgMC0uNyAwYzI2LjYtMjMuNSA0My4zLTU3LjggNDMuMy05NmMwLTcuNi0uNy0xNS0xLjktMjIuM2MxMy42LTYuMyAyOC43LTkuNyA0NC42LTkuN2g0Mi43QzU5Mi4yIDE5MiA2NDAgMjM5LjggNjQwIDI5OC43YzAgMTEuOC05LjYgMjEuMy0yMS4zIDIxLjNINDA1LjN6TTIyNCAyMjRhOTYgOTYgMCAxIDEgMTkyIDAgOTYgOTYgMCAxIDEgLTE5MiAwek0xMjggNDg1LjNDMTI4IDQxMS43IDE4Ny43IDM1MiAyNjEuMyAzNTJIMzc4LjdDNDUyLjMgMzUyIDUxMiA0MTEuNyA1MTIgNDg1LjNjMCAxNC43LTExLjkgMjYuNy0yNi43IDI2LjdIMTU0LjdjLTE0LjcgMC0yNi43LTExLjktMjYuNy0yNi43eiIvPjwvc3ZnPg==;connectable=0;movable=1;verticalLabelPosition=bottom;resizable=1;rotatable=0;cloneable=0;deletable=1;recursiveResize=0;imageBackground=none;verticalAlign=top;rounded=1;" parent="46" vertex="1">
                    <mxGeometry x="392.0253702951137" y="139.99829059829062" width="46.953247479285224" height="46.953247479285224" as="geometry"/>
                </mxCell>
            </root>
        </mxGraphModel>
    </diagram>
</mxfile>